<svg width="120" height="120" viewBox="0 0 120 120" fill="none" xmlns="http://www.w3.org/2000/svg">
<g filter="url(#filter0_d_357_384)">
<path d="M40.199 34.342C40.7593 33.6135 41.4794 33.0235 42.3039 32.6175C43.1283 32.2114 44.035 32.0001 44.954 32H75.046C75.965 32.0001 76.8717 32.2114 77.6961 32.6175C78.5206 33.0235 79.2407 33.6135 79.801 34.342L96.756 56.382C97.5629 57.4311 98.0002 58.7175 98 60.041V82C98 83.5913 97.3679 85.1174 96.2426 86.2426C95.1174 87.3679 93.5913 88 92 88H28C26.4087 88 24.8826 87.3679 23.7574 86.2426C22.6321 85.1174 22 83.5913 22 82V60.04C22.0002 58.7172 22.4375 57.4315 23.244 56.383L40.2 34.341L40.199 34.342Z" fill="url(#paint0_linear_357_384)"/>
<path fill-rule="evenodd" clip-rule="evenodd" d="M75.046 34H44.954C44.3414 34.0001 43.7369 34.1408 43.1873 34.4115C42.6377 34.6821 42.1576 35.0754 41.784 35.561L24.83 57.601C24.2917 58.3005 23.9999 59.1584 24 60.041V82C24 83.0609 24.4214 84.0783 25.1716 84.8284C25.9217 85.5786 26.9391 86 28 86H92C93.0609 86 94.0783 85.5786 94.8284 84.8284C95.5786 84.0783 96 83.0609 96 82V60.04C95.9997 59.1581 95.7079 58.3009 95.17 57.602L78.216 35.562C77.8425 35.0762 77.3625 34.6828 76.8129 34.4119C76.2632 34.1411 75.6587 34.0002 75.046 34ZM44.954 32C44.035 32.0001 43.1283 32.2114 42.3039 32.6175C41.4794 33.0235 40.7593 33.6135 40.199 34.342L23.244 56.382C22.4371 57.4311 21.9998 58.7175 22 60.041V82C22 83.5913 22.6321 85.1174 23.7574 86.2426C24.8826 87.3679 26.4087 88 28 88H92C93.5913 88 95.1174 87.3679 96.2426 86.2426C97.3679 85.1174 98 83.5913 98 82V60.04C97.9998 58.7172 97.5624 57.4315 96.756 56.383L79.8 34.341C79.2397 33.6129 78.5197 33.0231 77.6954 32.6172C76.8712 32.2113 75.9648 32.0002 75.046 32H44.954Z" fill="white"/>
<path fill-rule="evenodd" clip-rule="evenodd" d="M75.046 33H44.954C44.1881 33 43.4325 33.1759 42.7454 33.5141C42.7454 33.5141 41.458 34.344 40.991 34.951L24.037 56.992C23.3645 57.8661 22.9999 58.9381 23 60.041V82C23 83.3261 23.5268 84.5979 24.4645 85.5355C25.4021 86.4732 26.6739 87 28 87H92C93.3261 87 94.5979 86.4732 95.5355 85.5355C96.4732 84.5979 97 83.3261 97 82V60.04C96.9998 58.9375 96.6353 57.8659 95.963 56.992L79.01 34.952C78.543 34.3447 77.9426 33.8528 77.2553 33.5144C76.568 33.1759 75.8121 32.9999 75.046 33ZM44.954 32C44.035 32.0001 43.1283 32.2114 42.3039 32.6175C41.4794 33.0235 40.7593 33.6135 40.199 34.342L23.244 56.382C22.4371 57.4311 21.9998 58.7175 22 60.041V82C22 83.5913 22.6321 85.1174 23.7574 86.2426C24.8826 87.3679 26.4087 88 28 88H92C93.5913 88 95.1174 87.3679 96.2426 86.2426C97.3679 85.1174 98 83.5913 98 82V60.04C97.9998 58.7172 97.5624 57.4315 96.756 56.383L79.8 34.341C79.2397 33.6129 78.5197 33.0231 77.6954 32.6172C76.8712 32.2113 75.9648 32.0002 75.046 32H44.954Z" fill="url(#paint1_linear_357_384)"/>
<path d="M46.7845 37C46.3272 36.9999 45.8759 37.1044 45.4651 37.3054C45.0544 37.5065 44.695 37.7988 44.4145 38.16L32.7615 53.16C31.2305 55.13 32.6345 58 35.1305 58H48.0005C48.2657 58 48.5201 58.1054 48.7076 58.2929C48.8951 58.4804 49.0005 58.7348 49.0005 59V65C49.0005 65.7956 49.3166 66.5587 49.8792 67.1213C50.4418 67.6839 51.2049 68 52.0005 68H69.0005C69.7962 68 70.5592 67.6839 71.1218 67.1213C71.6844 66.5587 72.0005 65.7956 72.0005 65V59C72.0005 58.7348 72.1059 58.4804 72.2934 58.2929C72.4809 58.1054 72.7353 58 73.0005 58H84.8705C87.3665 58 88.7705 55.13 87.2405 53.16L75.5855 38.16C75.305 37.7988 74.9456 37.5065 74.5349 37.3054C74.1241 37.1044 73.6728 36.9999 73.2155 37H46.7845Z" fill="url(#paint2_linear_357_384)"/>
</g>
<defs>
<filter id="filter0_d_357_384" x="12" y="30" width="96" height="76" filterUnits="userSpaceOnUse" color-interpolation-filters="sRGB">
<feFlood flood-opacity="0" result="BackgroundImageFix"/>
<feColorMatrix in="SourceAlpha" type="matrix" values="0 0 0 0 0 0 0 0 0 0 0 0 0 0 0 0 0 0 127 0" result="hardAlpha"/>
<feOffset dy="8"/>
<feGaussianBlur stdDeviation="5"/>
<feComposite in2="hardAlpha" operator="out"/>
<feColorMatrix type="matrix" values="0 0 0 0 0.921569 0 0 0 0 1 0 0 0 0 0.996078 0 0 0 1 0"/>
<feBlend mode="normal" in2="BackgroundImageFix" result="effect1_dropShadow_357_384"/>
<feBlend mode="normal" in="SourceGraphic" in2="effect1_dropShadow_357_384" result="shape"/>
</filter>
<linearGradient id="paint0_linear_357_384" x1="46" y1="86.708" x2="46.443" y2="20.163" gradientUnits="userSpaceOnUse">
<stop stop-color="white"/>
<stop offset="1" stop-color="#EBFFFE"/>
</linearGradient>
<linearGradient id="paint1_linear_357_384" x1="59.9861" y1="91.6129" x2="59.9861" y2="42.8387" gradientUnits="userSpaceOnUse">
<stop offset="0.0408723" stop-color="#A1FCFF"/>
<stop offset="0.88432" stop-color="#DFFFFE"/>
</linearGradient>
<linearGradient id="paint2_linear_357_384" x1="59.9905" y1="70" x2="59.9905" y2="43" gradientUnits="userSpaceOnUse">
<stop offset="0.0408723" stop-color="#A1FCFF"/>
<stop offset="0.88432" stop-color="#DCFFFE"/>
</linearGradient>
</defs>
</svg>
