<svg width="16" height="16" viewBox="0 0 16 16" fill="none" xmlns="http://www.w3.org/2000/svg">
<path fill-rule="evenodd" clip-rule="evenodd" d="M8 0.833496C7.76353 0.833496 7.52207 0.906083 7.27653 0.998723C7.02793 1.09248 6.71747 1.2303 6.33029 1.40218C5.76121 1.65479 5.01013 1.94471 4.20451 2.17372C3.61659 2.34084 3.14128 2.47594 2.78122 2.61556C2.41937 2.75588 2.09129 2.92994 1.87044 3.22232C1.65654 3.5055 1.57425 3.83632 1.53646 4.1931C1.49998 4.53747 1.49999 4.96956 1.5 5.4927V7.4557C1.5 9.49296 2.41964 11.1084 3.53113 12.3126C4.63918 13.5129 5.95922 14.3294 6.82927 14.7886L6.87127 14.8108C7.2418 15.0067 7.54473 15.1668 8 15.1668C8.45533 15.1668 8.7582 15.0067 9.12873 14.8108L9.17073 14.7886C10.0408 14.3294 11.3608 13.5129 12.4689 12.3126C13.5803 11.1084 14.5 9.49296 14.5 7.4557V5.49272C14.5 4.96957 14.5 4.53748 14.4635 4.1931C14.4257 3.83632 14.3435 3.5055 14.1295 3.22232C13.9087 2.92994 13.5807 2.75588 13.2188 2.61556C12.8587 2.47595 12.3835 2.34084 11.7955 2.17374C10.9899 1.94473 10.2387 1.65478 9.66967 1.40216C9.28253 1.2303 8.97207 1.09248 8.72353 0.998723C8.47793 0.906083 8.23647 0.833496 8 0.833496ZM11.5559 6.62876C11.9029 6.50584 12.0847 6.12484 11.9617 5.77778C11.8389 5.43072 11.4579 5.24901 11.1108 5.37193C10.5253 5.57926 9.96573 5.97469 9.47467 6.40537C8.97667 6.8421 8.51107 7.34916 8.11553 7.8233C7.82267 8.17436 7.56373 8.51276 7.3536 8.79996C7.16107 8.56936 6.96933 8.4009 6.78647 8.27896C6.60353 8.15703 6.36819 8.00036 6 8.00036C5.63181 8.00036 5.33333 8.29883 5.33333 8.66703C5.33333 9.01416 5.59866 9.2993 5.93759 9.33076C6.07361 9.34343 6.44326 9.7109 6.73707 10.2985C6.84453 10.5134 7.05927 10.6538 7.29927 10.6662C7.53913 10.6784 7.7672 10.5606 7.89607 10.3578C7.89607 10.3578 8.12813 10.0096 8.23827 9.85356C8.459 9.5409 8.77147 9.11843 9.1394 8.67743C9.50853 8.2349 9.92533 7.78356 10.3538 7.40783C10.7891 7.02603 11.2001 6.75476 11.5559 6.62876Z" fill="#068EFF"/>
</svg>
