<svg width="32" height="33" viewBox="0 0 32 33" fill="none" xmlns="http://www.w3.org/2000/svg">
<path d="M9.89638 26.9677C10.9905 24.2525 13.219 22.1665 16.0003 22.1665C18.7817 22.1665 21.0102 24.2525 22.1043 26.9677C22.453 27.8328 22.3821 28.7472 22.0409 29.4632C21.7114 30.1544 21.0243 30.8332 20.0553 30.8332H11.9454C10.9764 30.8332 10.2893 30.1544 9.95988 29.4632C9.61864 28.7472 9.54776 27.8328 9.89638 26.9677Z" fill="#10F5FF"/>
<path d="M27.9952 8.57217C27.6561 8.52504 27.1106 8.50017 26.2698 8.50017H24.6669C23.9305 8.50017 23.3336 7.90322 23.3336 7.16684C23.3336 6.43046 23.9305 5.8335 24.6669 5.8335H26.3522C27.0814 5.8334 27.7614 5.83329 28.3069 5.90909C28.902 5.99181 29.5981 6.19554 30.1152 6.81837C30.6404 7.45114 30.701 8.17782 30.6536 8.78114C30.6112 9.32172 30.4424 10.0548 30.2853 10.7376L29.7642 13.0031C28.8512 16.9736 25.5241 19.8872 21.531 20.4855C20.8028 20.5946 20.124 20.0927 20.0149 19.3644C19.9058 18.6362 20.4077 17.9574 21.136 17.8483C24.1053 17.4034 26.5114 15.2496 27.1654 12.4055L27.6864 10.14C27.8697 9.34273 27.9701 8.89066 27.9952 8.57217Z" fill="#10F5FF"/>
<path d="M4.00454 8.57217C4.34365 8.52504 4.88907 8.50017 5.7299 8.50017H7.33286C8.06923 8.50017 8.66619 7.90322 8.66619 7.16684C8.66619 6.43046 8.06923 5.8335 7.33286 5.8335H5.64745C4.91826 5.8334 4.23822 5.83329 3.69285 5.90909C3.09778 5.99181 2.40159 6.19554 1.88459 6.81837C1.35931 7.45114 1.29865 8.17782 1.34607 8.78114C1.38857 9.32172 1.53811 9.97149 1.69527 10.6543L2.23541 13.0031C3.14847 16.9736 6.47566 19.8872 10.4686 20.4855C11.1969 20.5946 11.8757 20.0927 11.9848 19.3644C12.0939 18.6362 11.592 17.9574 10.8638 17.8483C7.89437 17.4034 5.48829 15.2496 4.83425 12.4055L4.31327 10.14C4.12994 9.34273 4.02957 8.89066 4.00454 8.57217Z" fill="#10F5FF"/>
<path d="M12.1684 2.16651H12.2484H19.8307C20.9683 2.16644 21.9411 2.16639 22.7178 2.29263C23.5638 2.43011 24.3095 2.73573 24.8867 3.4354C25.4439 4.11073 25.6351 4.86851 25.6626 5.70885C25.688 6.48427 25.5745 7.42632 25.441 8.53308C24.9206 12.8521 23.7803 16.7336 22.2177 19.4933C20.6831 22.2032 18.567 24.1665 15.9997 24.1665C13.4322 24.1665 11.3161 22.2032 9.78158 19.4933C8.21885 16.7336 7.07857 12.8522 6.55817 8.53308C6.42476 7.42632 6.3112 6.48427 6.33658 5.70885C6.3641 4.86851 6.5553 4.11073 7.11246 3.4354C7.6897 2.73573 8.43536 2.43011 9.28136 2.29263C10.0581 2.16639 11.0309 2.16644 12.1684 2.16651Z" fill="#10F5FF"/>
</svg>
